<?xml version="1.0" encoding="UTF-8"?>
<svg id="a" xmlns="http://www.w3.org/2000/svg" viewBox="0 0 409.56096 408.68816">
  <g>
    <g>
      <path d="M205.41,24.97V113.21001c0,50.87-41.09,92.10001-91.77,92.10001H25.72L0,231.12001H113.64c64.78,0,117.48001-52.88998,117.48001-117.91-.28522-8.74879,.79249-107.37227-.84-113.21001l-24.88,24.97h.00999Z" style="fill: #fff;"/>
      <path d="M179.69,113.21001c0,36.54999-29.63,66.29001-66.05,66.29001H51.44l-25.72,25.81H113.64c50.67999,0,91.76999-41.23001,91.76999-92.10001V24.97002l-25.72,25.81v62.42999h.00002Z" style="fill: #fff;"/>
    </g>
    <polygon points="194.63714 35.78056 211.76804 18.57893 205.40999 175.45669 185.98026 201.78997 155.64699 217.78993 115.60444 224.12325 94.31378 217.78993 18.97145 212.08217 38.93836 192.0454 104.64709 189.12333 152.647 178.45668 173.98029 162.12338 186.64693 88.79019 194.63714 35.78056" style="fill: #fff;"/>
  </g>
  <g>
    <g>
      <path d="M204.15983,383.71709l-.00379-88.24001c-.00219-50.87,41.08604-92.10177,91.76604-92.10395l87.92001-.00378,25.71889-25.8111-113.64,.00489c-64.78,.00279-117.47774,52.89504-117.47494,117.91505,.2856,8.74878-.78787,107.3723,.84486,113.20997l24.87893-24.97107h-.00999Z" style="fill: #fff;"/>
      <path d="M229.87603,295.47598c-.00157-36.54999,29.62715-66.29128,66.04715-66.29285l62.2-.00267,25.71889-25.8111-87.92,.00378c-50.67999,.00218-91.76822,41.23396-91.76603,92.10395l.00379,88.23999,25.71889-25.8111-.00268-62.42999h-.00002Z" style="fill: #fff;"/>
    </g>
    <polygon points="214.93222 372.90607 197.80206 390.10843 204.15337 233.23041 223.58196 206.89629 253.91455 190.89502 293.95683 184.55998 315.24775 190.89238 391.53961 195.64422 371.24098 216.01563 304.91568 219.55944 256.91623 230.22814 235.58364 246.56236 222.92015 319.89609 214.93222 372.90607" style="fill: #fff;"/>
  </g>
</svg>